<?xml version="1.0" standalone="no"?>
<!DOCTYPE svg PUBLIC "-//W3C//DTD SVG 20010904//EN"
 "http://www.w3.org/TR/2001/REC-SVG-20010904/DTD/svg10.dtd">
<svg version="1.0" xmlns="http://www.w3.org/2000/svg"
 width="617.000000pt" height="617.000000pt" viewBox="0 0 617.000000 617.000000"
 preserveAspectRatio="xMidYMid meet">
<metadata>
Created by potrace 1.14, written by Peter Selinger 2001-2017
</metadata>
<g transform="translate(0.000000,617.000000) scale(0.100000,-0.100000)"
fill="#000000" stroke="none">
<path d="M2879 6166 c-2 -2 -41 -7 -86 -10 -46 -4 -93 -9 -105 -11 -12 -3 -40
-7 -63 -10 -22 -3 -56 -8 -75 -11 -28 -3 -151 -33 -331 -78 -78 -20 -348 -119
-397 -146 -9 -5 -73 -37 -142 -70 -69 -34 -132 -68 -141 -76 -8 -8 -19 -14
-23 -14 -9 0 -90 -53 -94 -62 -2 -5 -8 -8 -14 -8 -5 0 -47 -26 -91 -57 -91
-64 -87 -61 -177 -135 -36 -29 -73 -60 -84 -68 -47 -38 -258 -253 -315 -320
-35 -41 -72 -85 -82 -98 -10 -12 -19 -27 -19 -32 0 -6 -4 -10 -8 -10 -5 0 -20
-17 -33 -37 -14 -21 -47 -68 -72 -106 -26 -37 -47 -71 -47 -76 0 -5 -4 -11 -9
-13 -7 -2 -141 -233 -141 -243 0 -1 -22 -50 -49 -107 -27 -58 -70 -161 -94
-229 -61 -169 -102 -318 -133 -483 -2 -16 -7 -32 -9 -35 -2 -4 -6 -34 -10 -68
-3 -34 -8 -72 -10 -85 -27 -134 -26 -643 1 -783 2 -11 7 -40 10 -65 29 -220
120 -540 210 -737 8 -17 14 -34 14 -38 0 -11 115 -237 143 -282 15 -24 27 -45
27 -49 0 -10 162 -249 171 -252 5 -2 9 -9 9 -16 0 -7 11 -23 25 -36 14 -13 25
-29 25 -37 0 -7 3 -13 8 -13 4 0 27 -25 52 -56 56 -70 289 -305 355 -359 26
-22 53 -45 59 -50 32 -30 204 -155 213 -155 6 0 13 -4 15 -8 3 -9 83 -64 108
-75 8 -4 38 -21 65 -37 28 -17 57 -34 65 -37 8 -4 17 -9 20 -13 5 -7 218 -111
235 -115 6 -1 32 -12 59 -24 124 -55 455 -154 591 -176 60 -10 76 -13 120 -20
22 -3 51 -8 65 -11 94 -18 576 -26 688 -11 28 4 75 10 104 13 28 3 60 8 72 10
11 2 36 6 56 9 55 8 72 12 215 45 50 12 108 28 130 37 22 8 42 14 45 14 15 -3
310 107 354 132 12 6 23 12 26 12 13 1 205 104 284 151 49 30 91 54 93 54 2 0
28 18 57 40 29 22 58 40 64 40 5 0 12 4 14 8 2 5 42 39 89 75 217 167 373 327
592 607 23 29 137 198 137 203 0 3 19 36 42 73 58 96 148 281 192 394 20 52
41 104 46 115 16 38 58 174 84 275 4 15 40 181 50 235 9 44 19 120 32 235 16
141 8 619 -11 690 -2 8 -7 42 -11 75 -3 33 -8 63 -10 66 -2 4 -6 24 -10 45 -8
56 -60 260 -90 356 -58 184 -200 505 -270 607 -13 20 -24 39 -24 43 0 4 -25
44 -55 89 -30 45 -55 83 -55 86 0 2 -6 11 -12 18 -16 17 -21 25 -78 100 -25
33 -50 65 -56 71 -5 6 -26 31 -45 54 -30 38 -280 291 -319 324 -8 7 -51 41
-95 77 -44 35 -82 66 -85 69 -15 15 -222 150 -230 150 -6 0 -10 3 -10 8 0 4
-10 12 -23 18 -12 6 -53 28 -92 49 -200 109 -318 160 -520 227 -120 40 -200
63 -249 72 -14 3 -34 7 -44 10 -34 10 -215 42 -292 52 -30 3 -66 8 -80 10 -31
6 -506 14 -511 10z"/>
</g>
</svg>
